<svg width="34" height="36" viewBox="0 0 34 36" fill="none" xmlns="http://www.w3.org/2000/svg">
<path d="M30.75 18.95V18V17.0375L33.15 14.9375C33.5924 14.5476 33.8827 14.0138 33.9697 13.4305C34.0566 12.8472 33.9345 12.252 33.625 11.75L30.675 6.74999C30.4558 6.37032 30.1406 6.05497 29.7611 5.83557C29.3815 5.61617 28.9509 5.50044 28.5125 5.49999C28.2408 5.49791 27.9706 5.54013 27.7125 5.62499L24.675 6.64999C24.1506 6.3015 23.6035 5.98831 23.0375 5.71249L22.4 2.56249C22.2857 1.987 21.9726 1.47004 21.5156 1.10212C21.0585 0.734195 20.4866 0.538747 19.9 0.549989H14.05C13.4634 0.538747 12.8915 0.734195 12.4344 1.10212C11.9774 1.47004 11.6643 1.987 11.55 2.56249L10.9125 5.71249C10.3424 5.98824 9.79122 6.30142 9.26251 6.64999L6.28751 5.57499C6.02663 5.50702 5.75648 5.48169 5.48751 5.49999C5.0491 5.50044 4.61852 5.61617 4.23896 5.83557C3.8594 6.05497 3.54421 6.37032 3.32501 6.74999L0.375011 11.75C0.0832442 12.2512 -0.0251749 12.8383 0.0683221 13.4107C0.161819 13.9831 0.451415 14.5051 0.88751 14.8875L3.25001 17.05V18.9625L0.88751 21.0625C0.439096 21.4475 0.14158 21.9789 0.0477588 22.5624C-0.0460622 23.1459 0.0698803 23.7438 0.375011 24.25L3.32501 29.25C3.54421 29.6297 3.8594 29.945 4.23896 30.1644C4.61852 30.3838 5.0491 30.4995 5.48751 30.5C5.7592 30.5021 6.02941 30.4598 6.28751 30.375L9.32501 29.35C9.84943 29.6985 10.3965 30.0117 10.9625 30.2875L11.6 33.4375C11.7143 34.013 12.0274 34.5299 12.4844 34.8979C12.9415 35.2658 13.5134 35.4612 14.1 35.45H20C20.5866 35.4612 21.1585 35.2658 21.6156 34.8979C22.0726 34.5299 22.3857 34.013 22.5 33.4375L23.1375 30.2875C23.7076 30.0117 24.2588 29.6986 24.7875 29.35L27.8125 30.375C28.0706 30.4598 28.3408 30.5021 28.6125 30.5C29.0509 30.4995 29.4815 30.3838 29.8611 30.1644C30.2406 29.945 30.5558 29.6297 30.775 29.25L33.625 24.25C33.9168 23.7488 34.0252 23.1617 33.9317 22.5893C33.8382 22.0169 33.5486 21.4948 33.1125 21.1125L30.75 18.95ZM28.5125 28L24.225 26.55C23.2213 27.4001 22.0743 28.0647 20.8375 28.5125L19.95 33H14.05L13.1625 28.5625C11.9355 28.102 10.7947 27.4386 9.78751 26.6L5.48751 28L2.53751 23L5.93751 20C5.70638 18.7061 5.70638 17.3814 5.93751 16.0875L2.53751 13L5.48751 7.99999L9.77501 9.44999C10.7787 8.59985 11.9258 7.93531 13.1625 7.48749L14.05 2.99999H19.95L20.8375 7.43749C22.0645 7.89802 23.2054 8.56142 24.2125 9.39999L28.5125 7.99999L31.4625 13L28.0625 16C28.2936 17.2939 28.2936 18.6186 28.0625 19.9125L31.4625 23L28.5125 28Z" fill="black" fill-opacity="0.72"/>
<path d="M17 25.5C15.5166 25.5 14.0666 25.0601 12.8332 24.236C11.5999 23.4119 10.6386 22.2406 10.0709 20.8701C9.50325 19.4997 9.35472 17.9917 9.64411 16.5368C9.9335 15.082 10.6478 13.7456 11.6967 12.6967C12.7456 11.6478 14.082 10.9335 15.5368 10.6441C16.9917 10.3547 18.4997 10.5032 19.8701 11.0709C21.2406 11.6386 22.4119 12.5999 23.236 13.8332C24.0601 15.0666 24.5 16.5166 24.5 18C24.51 18.9877 24.3229 19.9675 23.9495 20.882C23.5762 21.7964 23.0241 22.6272 22.3257 23.3257C21.6272 24.0241 20.7964 24.5762 19.882 24.9495C18.9675 25.3229 17.9877 25.51 17 25.5V25.5ZM17 13C16.3392 12.9846 15.6821 13.1034 15.0685 13.3492C14.4549 13.5951 13.8976 13.9628 13.4302 14.4302C12.9628 14.8976 12.5951 15.4549 12.3492 16.0685C12.1034 16.6821 11.9846 17.3392 12 18C11.9846 18.6608 12.1034 19.3179 12.3492 19.9315C12.5951 20.5451 12.9628 21.1024 13.4302 21.5698C13.8976 22.0372 14.4549 22.4049 15.0685 22.6508C15.6821 22.8966 16.3392 23.0154 17 23C17.6608 23.0154 18.3179 22.8966 18.9315 22.6508C19.5451 22.4049 20.1024 22.0372 20.5698 21.5698C21.0372 21.1024 21.4049 20.5451 21.6508 19.9315C21.8966 19.3179 22.0154 18.6608 22 18C22.0154 17.3392 21.8966 16.6821 21.6508 16.0685C21.4049 15.4549 21.0372 14.8976 20.5698 14.4302C20.1024 13.9628 19.5451 13.5951 18.9315 13.3492C18.3179 13.1034 17.6608 12.9846 17 13Z" fill="black" fill-opacity="0.72"/>
</svg>
