<svg width="16" height="17" viewBox="0 0 16 17" fill="none" xmlns="http://www.w3.org/2000/svg">
<path d="M14.6367 17L9.13045 11.1489C7.94903 12.0413 6.49518 12.4295 5.05703 12.2367C3.61888 12.0439 2.3014 11.2841 1.3657 10.1078C0.430003 8.93162 -0.0556216 7.42483 0.00507404 5.88612C0.0657697 4.34741 0.668356 2.88908 1.69341 1.80016C2.71818 0.710764 4.0908 0.0701991 5.53919 0.00543646C6.98759 -0.0593262 8.40601 0.456441 9.51332 1.4505C10.6206 2.44457 11.336 3.84436 11.5176 5.37241C11.6992 6.90046 11.3337 8.44523 10.4938 9.70051L16 15.5516L14.6377 16.999L14.6367 17V17ZM5.78045 2.04788C4.89412 2.04766 4.0348 2.37203 3.34728 2.96634C2.65977 3.56066 2.18608 4.38858 2.00603 5.31062C1.82598 6.23266 1.95057 7.19246 2.35881 8.0283C2.76705 8.86414 3.43399 9.52493 4.24726 9.89934C5.06052 10.2737 5.97041 10.3389 6.8236 10.0838C7.67679 9.82868 8.42114 9.26892 8.93124 8.49883C9.44134 7.72873 9.686 6.79537 9.62401 5.856C9.56202 4.91663 9.19716 4.02868 8.5909 3.34174L9.1738 3.95592L8.51671 3.25985L8.50515 3.24757C8.14826 2.86606 7.72366 2.56357 7.25596 2.35764C6.78825 2.15171 6.28673 2.04642 5.78045 2.04788V2.04788Z" fill="black" fill-opacity="0.72"/>
</svg>
